<?xml version="1.0" encoding="utf-8"?>
<!-- Generator: Adobe Illustrator 16.0.0, SVG Export Plug-In . SVG Version: 6.00 Build 0)  -->
<!DOCTYPE svg PUBLIC "-//W3C//DTD SVG 1.1//EN" "http://www.w3.org/Graphics/SVG/1.1/DTD/svg11.dtd">
<svg version="1.1" id="Capa_1" xmlns="http://www.w3.org/2000/svg" xmlns:xlink="http://www.w3.org/1999/xlink" x="0px" y="0px"
	 width="203.042px" height="124.157px" viewBox="0 0 203.042 124.157" enable-background="new 0 0 203.042 124.157"
	 xml:space="preserve">
<g>
	<path fill="#FFFFFF" d="M34.148,117.536c0,0.893-0.179,1.713-0.536,2.463c-0.357,0.748-0.839,1.396-1.441,1.945
		c-0.604,0.545-1.308,0.971-2.112,1.271c-0.803,0.303-1.664,0.453-2.58,0.453H16.252V99.874h11.46c0.827,0,1.577,0.181,2.246,0.537
		c0.669,0.357,1.24,0.821,1.708,1.389c0.469,0.57,0.832,1.219,1.09,1.944c0.256,0.726,0.386,1.459,0.386,2.196
		c0,1.205-0.303,2.307-0.905,3.3c-0.603,0.995-1.441,1.737-2.514,2.23c1.362,0.401,2.44,1.151,3.233,2.245
		C33.751,114.809,34.148,116.083,34.148,117.536z M18.598,101.917v8.782h8.177c0.581,0,1.124-0.123,1.625-0.368
		c0.501-0.245,0.933-0.57,1.29-0.974c0.357-0.401,0.637-0.864,0.837-1.391c0.202-0.524,0.303-1.078,0.303-1.659
		c0-0.603-0.095-1.172-0.285-1.707c-0.189-0.537-0.458-1.001-0.805-1.391c-0.346-0.393-0.754-0.704-1.223-0.941
		c-0.469-0.234-0.983-0.352-1.541-0.352H18.598z M31.801,117.132c0-0.581-0.1-1.143-0.3-1.69c-0.202-0.549-0.487-1.028-0.856-1.443
		c-0.368-0.412-0.803-0.747-1.307-1.004c-0.502-0.256-1.044-0.387-1.625-0.387h-9.115v9.017h8.88c0.603,0,1.167-0.123,1.693-0.368
		c0.524-0.246,0.982-0.575,1.374-0.99c0.391-0.412,0.698-0.892,0.922-1.439C31.689,118.278,31.801,117.713,31.801,117.132z"/>
	<path fill="#FFFFFF" d="M40.837,123.667v-3.183V99.203h2.279v20.51v3.955H40.837z"/>
	<path fill="#FFFFFF" d="M63.211,123.332v-1.941v-2.013c-0.76,1.363-1.793,2.419-3.1,3.169c-1.308,0.747-2.699,1.121-4.173,1.121
		c-1.9,0-3.312-0.63-4.24-1.894c-0.927-1.263-1.391-3.145-1.391-5.647v-10.255h2.279v9.854c0,3.955,1.353,5.932,4.056,5.932
		c0.671,0,1.33-0.111,1.977-0.335c0.648-0.224,1.245-0.548,1.793-0.971c0.547-0.426,1.039-0.928,1.474-1.509
		c0.436-0.581,0.788-1.24,1.055-1.978v-10.993h2.28v17.46H63.211z"/>
	<path fill="#FFFFFF" d="M81.153,123.667c-1.274,0-2.441-0.24-3.502-0.721c-1.062-0.479-1.984-1.14-2.766-1.977
		c-0.783-0.838-1.391-1.803-1.826-2.899c-0.437-1.094-0.654-2.267-0.654-3.519c0-1.229,0.218-2.384,0.654-3.469
		c0.435-1.083,1.039-2.032,1.81-2.848s1.692-1.465,2.764-1.944c1.073-0.48,2.234-0.721,3.486-0.721c1.273,0,2.441,0.24,3.502,0.721
		c1.061,0.479,1.972,1.135,2.731,1.961c0.759,0.826,1.351,1.775,1.777,2.847c0.424,1.072,0.637,2.212,0.637,3.421
		c0,0.177,0,0.357,0,0.534c0,0.18-0.012,0.303-0.034,0.368H74.784c0.068,0.938,0.285,1.806,0.655,2.6
		c0.368,0.793,0.843,1.48,1.423,2.059c0.581,0.584,1.245,1.034,1.994,1.358c0.749,0.324,1.548,0.485,2.397,0.485
		c0.558,0,1.117-0.076,1.675-0.234c0.559-0.155,1.073-0.368,1.542-0.636c0.469-0.27,0.894-0.597,1.274-0.99
		c0.379-0.39,0.669-0.82,0.872-1.29l1.977,0.538c-0.269,0.648-0.649,1.235-1.14,1.759c-0.491,0.526-1.061,0.984-1.708,1.375
		c-0.649,0.39-1.364,0.692-2.145,0.905C82.816,123.561,82.001,123.667,81.153,123.667z M87.586,113.679
		c-0.067-0.938-0.285-1.791-0.653-2.563c-0.368-0.769-0.837-1.435-1.407-1.993c-0.57-0.557-1.229-0.993-1.978-1.307
		c-0.749-0.313-1.547-0.469-2.396-0.469c-0.85,0-1.654,0.155-2.414,0.469c-0.759,0.313-1.423,0.75-1.994,1.307
		c-0.57,0.559-1.028,1.229-1.375,2.013c-0.346,0.779-0.552,1.631-0.619,2.544H87.586z"/>
	<path fill="#FFFFFF" d="M122.234,99.874h1.978l9.887,23.794h-2.479l-3.085-7.44h-10.69l-3.05,7.44h-2.515L122.234,99.874z
		 M127.997,114.386l-4.792-11.764l-4.859,11.764H127.997z"/>
	<path fill="#FFFFFF" d="M139.79,123.667v-3.385V99.001h2.28v20.512v4.154H139.79z"/>
	<path fill="#FFFFFF" d="M158.399,123.667c-1.386,0-2.654-0.347-3.805-1.039c-1.151-0.69-2.052-1.585-2.697-2.682v3.385h-2.046
		V98.868h2.28v10.658c0.782-1.184,1.721-2.141,2.814-2.866s2.367-1.089,3.821-1.089c1.227,0,2.329,0.257,3.3,0.77
		c0.974,0.516,1.8,1.203,2.481,2.062c0.68,0.862,1.206,1.833,1.574,2.916c0.368,1.085,0.554,2.195,0.554,3.335
		c0,1.228-0.213,2.39-0.639,3.486c-0.423,1.094-1.003,2.048-1.742,2.863c-0.736,0.815-1.612,1.465-2.63,1.944
		C160.649,123.427,159.56,123.667,158.399,123.667z M157.861,121.657c0.961,0,1.839-0.196,2.633-0.586
		c0.79-0.39,1.473-0.916,2.042-1.576c0.57-0.657,1.018-1.407,1.342-2.245c0.325-0.837,0.486-1.702,0.486-2.597
		c0-0.916-0.15-1.8-0.453-2.647c-0.3-0.849-0.726-1.604-1.273-2.262c-0.549-0.659-1.206-1.186-1.978-1.576
		c-0.77-0.39-1.614-0.586-2.531-0.586c-0.692,0-1.339,0.117-1.941,0.352c-0.604,0.234-1.162,0.554-1.678,0.954
		c-0.513,0.404-0.971,0.868-1.372,1.392c-0.403,0.526-0.739,1.08-1.006,1.658v5.43c0.09,0.604,0.33,1.168,0.72,1.694
		c0.39,0.523,0.859,0.977,1.407,1.355c0.549,0.382,1.141,0.682,1.775,0.905C156.672,121.545,157.281,121.657,157.861,121.657z"/>
	<path fill="#FFFFFF" d="M186.07,123.332v-2.915c-0.802,1.05-1.813,1.854-3.032,2.413c-1.217,0.56-2.528,0.838-3.936,0.838
		c-0.829,0-1.593-0.14-2.297-0.418c-0.703-0.28-1.319-0.665-1.844-1.156c-0.526-0.49-0.933-1.066-1.225-1.727
		c-0.289-0.659-0.434-1.369-0.434-2.127c0-0.761,0.178-1.465,0.535-2.113c0.357-0.646,0.861-1.206,1.508-1.675
		c0.649-0.47,1.418-0.832,2.312-1.088c0.896-0.257,1.877-0.388,2.951-0.388c0.892,0,1.798,0.079,2.714,0.234
		c0.916,0.158,1.732,0.382,2.446,0.671v-1.573c0-1.544-0.437-2.766-1.306-3.671c-0.873-0.906-2.079-1.358-3.62-1.358
		c-0.895,0-1.811,0.18-2.749,0.537c-0.938,0.357-1.887,0.873-2.85,1.541l-0.802-1.509c2.255-1.519,4.445-2.277,6.567-2.277
		c2.189,0,3.908,0.614,5.16,1.844c1.252,1.228,1.876,2.927,1.876,5.093v10.824H186.07z M179.636,121.924
		c1.184,0,2.274-0.224,3.268-0.668c0.995-0.447,1.748-1.039,2.264-1.778c0.199-0.199,0.352-0.417,0.453-0.651
		c0.098-0.235,0.149-0.453,0.149-0.655v-2.847c-0.761-0.292-1.546-0.516-2.361-0.672c-0.818-0.155-1.65-0.234-2.499-0.234
		c-1.608,0-2.915,0.336-3.922,1.004c-1.003,0.671-1.508,1.555-1.508,2.648c0,0.537,0.106,1.039,0.319,1.508
		c0.213,0.47,0.504,0.879,0.872,1.225c0.369,0.347,0.811,0.619,1.323,0.821C178.507,121.824,179.055,121.924,179.636,121.924z"/>
	<path fill="#FFFFFF" d="M133.733,79.457V58.354c0.108-1.576-0.077-3.054,0-4.748c0.032-0.736,0.052-1.574,0-2.291v-0.046v0.005
		c-0.535-7.508-3.45-13.896-8.791-19.148c-5.872-5.752-13.036-8.6-21.511-8.523c-1.803,0.016-10.208,2.081-14.114,3.06V7.719
		c-0.027-2.354,0-7.893,0-7.893s-5.902-0.016-8.253,0c-2.28,0.024-7.893,0-7.893,0s-0.021,5.763,0,8.035v46.168
		c0.063,8.395,3.538,15.475,9.412,21.236c5.849,5.752,12.99,8.594,21.394,8.515c4.707-0.041,10.768-0.605,12.884-5.032
		c-0.084,2.591,0,5.032,0,5.032s5.458-0.073,7.809,0c2.28,0.076,9.063,0,9.063,0S133.656,81.732,133.733,79.457z M113.853,63.668
		c-2.763,2.776-6.104,4.176-10.023,4.214c-3.931,0.035-7.274-1.304-10.045-4.031c-2.782-2.72-4.187-6.044-4.222-9.972L89.47,43.412
		c5.097-1.615,12.577-3.897,14.109-3.911c3.914-0.035,7.279,1.331,10.105,4.094c2.795,2.757,4.235,6.101,4.271,10.028
		C117.99,57.547,116.616,60.894,113.853,63.668z"/>
</g>
</svg>
