<?xml version="1.0" encoding="utf-8"?>
<!-- Generator: Adobe Illustrator 16.0.0, SVG Export Plug-In . SVG Version: 6.00 Build 0)  -->
<!DOCTYPE svg PUBLIC "-//W3C//DTD SVG 1.1//EN" "http://www.w3.org/Graphics/SVG/1.1/DTD/svg11.dtd">
<svg version="1.1" id="Capa_1" xmlns="http://www.w3.org/2000/svg" xmlns:xlink="http://www.w3.org/1999/xlink" x="0px" y="0px"
	 width="201.027px" height="29.02px" viewBox="11.637 -0.302 201.027 29.02" enable-background="new 11.637 -0.302 201.027 29.02"
	 xml:space="preserve">
<path fill="#FFFFFF" d="M32.577,21.544c0,1.043-0.209,2.004-0.627,2.882c-0.418,0.874-0.981,1.634-1.687,2.275
	c-0.707,0.638-1.53,1.136-2.472,1.487c-0.939,0.354-1.947,0.529-3.019,0.529H11.637V0.876h13.41c0.967,0,1.845,0.21,2.628,0.628
	c0.783,0.418,1.45,0.961,2,1.625c0.549,0.667,0.973,1.427,1.275,2.275c0.3,0.849,0.452,1.708,0.452,2.569
	c0,1.411-0.354,2.7-1.06,3.861c-0.706,1.165-1.687,2.033-2.941,2.611c1.594,0.469,2.854,1.347,3.783,2.626
	C32.113,18.353,32.577,19.843,32.577,21.544z M14.381,3.266v10.276h9.568c0.68,0,1.315-0.144,1.902-0.431
	c0.587-0.287,1.092-0.667,1.51-1.139c0.418-0.469,0.745-1.012,0.98-1.628c0.236-0.613,0.354-1.261,0.354-1.94
	c0-0.705-0.112-1.372-0.333-1.998c-0.222-0.629-0.536-1.171-0.941-1.628c-0.405-0.459-0.882-0.823-1.431-1.101
	c-0.549-0.274-1.151-0.412-1.803-0.412H14.381z M29.831,21.072c0-0.68-0.117-1.337-0.351-1.979c-0.236-0.642-0.57-1.203-1.002-1.688
	c-0.431-0.482-0.94-0.874-1.529-1.175c-0.587-0.3-1.222-0.453-1.902-0.453H14.381v10.551h10.391c0.706,0,1.366-0.144,1.982-0.431
	c0.613-0.287,1.149-0.673,1.607-1.158c0.458-0.482,0.817-1.044,1.079-1.686C29.7,22.411,29.831,21.751,29.831,21.072z"/>
<path fill="#FFFFFF" d="M40.404,28.718v-3.725V0.091h2.667V24.09v4.628H40.404z"/>
<path fill="#FFFFFF" d="M66.585,28.325v-2.272v-2.355c-0.889,1.596-2.098,2.831-3.627,3.709c-1.53,0.874-3.158,1.312-4.883,1.312
	c-2.223,0-3.876-0.737-4.961-2.215c-1.085-1.478-1.627-3.68-1.627-6.609v-12h2.667v11.531c0,4.627,1.583,6.941,4.746,6.941
	c0.785,0,1.556-0.131,2.314-0.393c0.758-0.262,1.457-0.642,2.098-1.137c0.64-0.498,1.216-1.085,1.725-1.765
	c0.511-0.68,0.922-1.452,1.235-2.313V7.894h2.668v20.432H66.585z"/>
<path fill="#FFFFFF" d="M87.58,28.718c-1.49,0-2.856-0.281-4.098-0.843c-1.243-0.562-2.322-1.334-3.236-2.313
	c-0.916-0.979-1.627-2.109-2.136-3.393c-0.511-1.279-0.766-2.652-0.766-4.117c0-1.439,0.255-2.789,0.766-4.059
	c0.509-1.267,1.216-2.377,2.117-3.332c0.902-0.954,1.98-1.714,3.235-2.275c1.256-0.562,2.614-0.842,4.079-0.842
	c1.49,0,2.856,0.281,4.098,0.842c1.241,0.562,2.307,1.328,3.196,2.294c0.889,0.967,1.581,2.078,2.079,3.332
	c0.496,1.254,0.745,2.588,0.745,4.002c0,0.208,0,0.418,0,0.626c0,0.21-0.014,0.354-0.04,0.431h-17.49
	c0.08,1.098,0.333,2.112,0.766,3.041c0.431,0.929,0.986,1.733,1.666,2.41c0.68,0.683,1.457,1.209,2.333,1.589
	s1.811,0.568,2.805,0.568c0.653,0,1.307-0.09,1.959-0.274c0.654-0.183,1.256-0.431,1.805-0.744c0.549-0.315,1.045-0.698,1.491-1.158
	c0.443-0.456,0.783-0.961,1.02-1.51l2.314,0.629c-0.314,0.76-0.76,1.445-1.334,2.059c-0.575,0.616-1.242,1.152-2,1.608
	c-0.76,0.456-1.596,0.811-2.51,1.06C89.526,28.594,88.572,28.718,87.58,28.718z M95.108,17.031c-0.078-1.099-0.333-2.097-0.765-3
	c-0.431-0.9-0.979-1.679-1.646-2.333c-0.667-0.651-1.438-1.162-2.314-1.529C89.507,9.802,88.572,9.62,87.58,9.62
	c-0.994,0-1.936,0.182-2.824,0.549c-0.889,0.367-1.666,0.877-2.333,1.529c-0.667,0.654-1.203,1.439-1.608,2.355
	c-0.405,0.913-0.646,1.909-0.725,2.978H95.108z"/>
<path fill="#FFFFFF" d="M135.651,0.876h2.314l11.568,27.842h-2.9l-3.609-8.706h-12.511l-3.568,8.706h-2.942L135.651,0.876z
	 M142.395,17.858l-5.607-13.765L131.1,17.858H142.395z"/>
<path fill="#FFFFFF" d="M156.195,28.718v-3.961V-0.145h2.668v24.003v4.86H156.195z"/>
<path fill="#FFFFFF" d="M177.969,28.718c-1.621,0-3.104-0.405-4.452-1.216c-1.347-0.808-2.399-1.854-3.156-3.138v3.961h-2.394
	V-0.302h2.668v12.472c0.916-1.385,2.015-2.505,3.294-3.354c1.279-0.849,2.771-1.273,4.471-1.273c1.437,0,2.726,0.3,3.862,0.9
	c1.139,0.603,2.106,1.407,2.904,2.413c0.794,1.008,1.41,2.145,1.841,3.411c0.431,1.271,0.648,2.569,0.648,3.903
	c0,1.437-0.249,2.796-0.747,4.079c-0.495,1.279-1.175,2.396-2.039,3.351c-0.862,0.954-1.887,1.714-3.077,2.275
	S179.329,28.718,177.969,28.718z M177.341,26.366c1.123,0,2.15-0.23,3.079-0.687c0.926-0.456,1.724-1.072,2.391-1.845
	c0.667-0.77,1.19-1.646,1.57-2.627c0.38-0.979,0.567-1.991,0.567-3.038c0-1.072-0.175-2.106-0.529-3.099
	c-0.352-0.993-0.849-1.876-1.49-2.646c-0.642-0.772-1.411-1.389-2.314-1.845c-0.899-0.457-1.889-0.686-2.961-0.686
	c-0.811,0-1.567,0.137-2.272,0.412s-1.359,0.647-1.963,1.117c-0.6,0.473-1.136,1.015-1.605,1.628
	c-0.472,0.616-0.864,1.264-1.178,1.94v6.354c0.105,0.705,0.387,1.366,0.843,1.981c0.456,0.613,1.006,1.143,1.646,1.587
	c0.642,0.446,1.334,0.798,2.078,1.06C175.95,26.236,176.661,26.366,177.341,26.366z"/>
<path fill="#FFFFFF" d="M210.35,28.325v-3.411c-0.938,1.229-2.123,2.17-3.549,2.824c-1.424,0.654-2.959,0.979-4.605,0.979
	c-0.971,0-1.864-0.163-2.688-0.488c-0.823-0.329-1.545-0.778-2.157-1.354c-0.616-0.574-1.092-1.247-1.433-2.02
	c-0.339-0.772-0.508-1.603-0.508-2.489c0-0.891,0.207-1.714,0.626-2.474c0.418-0.757,1.008-1.41,1.765-1.96
	c0.76-0.549,1.659-0.973,2.706-1.272c1.047-0.301,2.195-0.454,3.453-0.454c1.044,0,2.104,0.093,3.176,0.274
	c1.072,0.186,2.026,0.447,2.862,0.785v-1.841c0-1.807-0.511-3.236-1.528-4.296c-1.021-1.06-2.433-1.589-4.235-1.589
	c-1.047,0-2.119,0.21-3.217,0.629c-1.098,0.418-2.209,1.021-3.335,1.803l-0.938-1.765c2.64-1.778,5.202-2.665,7.685-2.665
	c2.563,0,4.573,0.718,6.038,2.157c1.466,1.436,2.196,3.424,2.196,5.958v12.667H210.35z M202.821,26.679
	c1.386,0,2.662-0.262,3.823-0.782c1.165-0.523,2.046-1.216,2.649-2.081c0.232-0.232,0.411-0.488,0.529-0.763
	c0.115-0.274,0.176-0.529,0.176-0.766v-3.332c-0.891-0.341-1.81-0.603-2.764-0.785c-0.957-0.182-1.931-0.274-2.924-0.274
	c-1.883,0-3.411,0.393-4.589,1.175c-1.175,0.785-1.765,1.819-1.765,3.099c0,0.629,0.124,1.216,0.373,1.765s0.591,1.028,1.021,1.434
	s0.948,0.724,1.548,0.96C201.5,26.561,202.141,26.679,202.821,26.679z"/>
</svg>
