<?xml version="1.0" encoding="utf-8"?>
<!-- Generator: Adobe Illustrator 16.0.0, SVG Export Plug-In . SVG Version: 6.00 Build 0)  -->
<!DOCTYPE svg PUBLIC "-//W3C//DTD SVG 1.1//EN" "http://www.w3.org/Graphics/SVG/1.1/DTD/svg11.dtd">
<svg version="1.1" id="Capa_1" xmlns="http://www.w3.org/2000/svg" xmlns:xlink="http://www.w3.org/1999/xlink" x="0px" y="0px"
	 width="161.568px" height="124.813px" viewBox="21 -0.374 161.568 124.813" enable-background="new 21 -0.374 161.568 124.813"
	 xml:space="preserve">
<g>
	<path fill="#FFFFFF" d="M39.035,118.26c0,0.898-0.18,1.726-0.54,2.482c-0.36,0.753-0.845,1.406-1.453,1.959
		c-0.609,0.551-1.318,0.979-2.129,1.281c-0.81,0.306-1.677,0.456-2.6,0.456H21V100.46h11.55c0.833,0,1.589,0.181,2.264,0.541
		c0.674,0.36,1.249,0.828,1.722,1.399c0.473,0.574,0.838,1.229,1.098,1.96c0.258,0.73,0.389,1.471,0.389,2.212
		c0,1.215-0.305,2.326-0.913,3.326c-0.607,1.003-1.453,1.751-2.533,2.248c1.373,0.404,2.459,1.16,3.259,2.263
		C38.635,115.511,39.035,116.795,39.035,118.26z M23.364,102.52v8.85h8.24c0.585,0,1.133-0.124,1.639-0.371
		c0.506-0.248,0.94-0.574,1.3-0.981c0.36-0.403,0.642-0.871,0.844-1.401c0.204-0.528,0.305-1.086,0.305-1.671
		c0-0.608-0.096-1.183-0.287-1.722c-0.191-0.54-0.462-1.009-0.811-1.402c-0.349-0.396-0.76-0.708-1.232-0.947
		c-0.473-0.235-0.991-0.354-1.553-0.354H23.364z M36.67,117.853c0-0.585-0.101-1.15-0.302-1.703
		c-0.204-0.553-0.491-1.036-0.863-1.455c-0.371-0.415-0.81-0.753-1.316-1.011c-0.506-0.259-1.053-0.39-1.638-0.39h-9.186v9.087h8.95
		c0.607,0,1.176-0.125,1.707-0.372c0.528-0.247,0.989-0.58,1.384-0.998c0.395-0.415,0.704-0.898,0.929-1.451
		C36.557,119.007,36.67,118.44,36.67,117.853z"/>
	<path fill="#FFFFFF" d="M45.437,124.439v-3.208V99.785h2.296v20.67v3.984H45.437z"/>
	<path fill="#FFFFFF" d="M66.929,124.101v-1.957v-2.028c-0.766,1.374-1.807,2.438-3.124,3.194c-1.318,0.753-2.72,1.129-4.206,1.129
		c-1.914,0-3.338-0.635-4.272-1.907s-1.402-3.169-1.402-5.692v-10.335h2.296v9.932c0,3.984,1.363,5.978,4.087,5.978
		c0.676,0,1.34-0.112,1.993-0.338c0.653-0.226,1.255-0.553,1.808-0.979c0.551-0.43,1.047-0.935,1.485-1.52
		c0.44-0.587,0.794-1.252,1.064-1.993v-11.08h2.298v17.597H66.929z"/>
	<path fill="#FFFFFF" d="M83.604,124.439c-1.284,0-2.46-0.241-3.53-0.725c-1.07-0.484-1.999-1.15-2.787-1.993
		c-0.789-0.845-1.402-1.817-1.84-2.922c-0.44-1.103-0.66-2.284-0.66-3.546c0-1.24,0.22-2.402,0.66-3.496
		c0.438-1.092,1.047-2.048,1.824-2.87c0.776-0.821,1.706-1.476,2.786-1.959c1.082-0.484,2.251-0.727,3.513-0.727
		c1.284,0,2.46,0.242,3.529,0.727c1.069,0.483,1.987,1.144,2.752,1.976c0.766,0.833,1.362,1.789,1.791,2.87
		c0.428,1.08,0.642,2.229,0.642,3.447c0,0.178,0,0.359,0,0.538c0,0.182-0.013,0.305-0.035,0.371H77.186
		c0.069,0.944,0.288,1.819,0.66,2.619c0.371,0.8,0.849,1.492,1.435,2.075c0.585,0.589,1.255,1.042,2.009,1.369
		c0.755,0.327,1.56,0.488,2.417,0.488c0.562,0,1.125-0.077,1.688-0.236c0.563-0.156,1.082-0.37,1.554-0.641
		c0.473-0.271,0.9-0.602,1.284-0.997c0.382-0.393,0.675-0.827,0.878-1.3l1.993,0.542c-0.271,0.653-0.654,1.245-1.149,1.772
		c-0.495,0.53-1.069,0.992-1.722,1.385c-0.654,0.394-1.375,0.698-2.162,0.913C85.28,124.332,84.458,124.439,83.604,124.439z
		 M90.088,114.374c-0.067-0.945-0.287-1.806-0.659-2.584c-0.371-0.774-0.844-1.445-1.418-2.009c-0.575-0.561-1.238-1-1.993-1.316
		c-0.755-0.315-1.56-0.473-2.415-0.473c-0.856,0-1.667,0.157-2.433,0.473c-0.766,0.316-1.435,0.756-2.009,1.316
		c-0.575,0.563-1.037,1.239-1.385,2.028c-0.35,0.786-0.557,1.645-0.624,2.564H90.088z"/>
	<path fill="#FFFFFF" d="M118.551,100.46h1.993l9.963,23.979h-2.499l-3.107-7.498h-10.774l-3.073,7.498h-2.533L118.551,100.46z
		 M124.36,115.085l-4.83-11.854l-4.897,11.854H124.36z"/>
	<path fill="#FFFFFF" d="M136.245,124.439v-3.41V99.581h2.297v20.672v4.187H136.245z"/>
	<path fill="#FFFFFF" d="M154.343,124.439c-1.396,0-2.675-0.349-3.833-1.047c-1.16-0.695-2.067-1.598-2.72-2.702v3.411h-2.06V99.446
		h2.296v10.742c0.789-1.193,1.734-2.157,2.839-2.889c1.101-0.732,2.385-1.098,3.848-1.098c1.239,0,2.348,0.26,3.328,0.775
		c0.98,0.521,1.812,1.213,2.499,2.078c0.687,0.868,1.218,1.847,1.588,2.938c0.371,1.094,0.558,2.213,0.558,3.361
		c0,1.236-0.215,2.408-0.642,3.513c-0.429,1.103-1.014,2.064-1.757,2.886c-0.742,0.821-1.626,1.477-2.652,1.961
		C156.613,124.198,155.513,124.439,154.343,124.439z M153.803,122.414c0.967,0,1.852-0.198,2.651-0.591
		c0.798-0.394,1.485-0.924,2.06-1.589c0.574-0.663,1.025-1.418,1.351-2.263c0.327-0.843,0.491-1.714,0.491-2.616
		c0-0.923-0.153-1.813-0.457-2.669c-0.303-0.855-0.732-1.616-1.283-2.279c-0.552-0.664-1.217-1.195-1.992-1.589
		c-0.777-0.392-1.628-0.59-2.552-0.59c-0.697,0-1.35,0.118-1.958,0.354c-0.606,0.236-1.17,0.559-1.688,0.963
		c-0.518,0.406-0.979,0.874-1.384,1.402c-0.405,0.53-0.743,1.088-1.015,1.671v5.472c0.09,0.608,0.333,1.177,0.728,1.707
		c0.393,0.527,0.866,0.984,1.418,1.366c0.551,0.385,1.149,0.688,1.79,0.913C152.604,122.301,153.218,122.414,153.803,122.414z"/>
	<path fill="#FFFFFF" d="M180.575,124.101v-2.938c-0.81,1.058-1.829,1.87-3.058,2.434c-1.227,0.562-2.549,0.843-3.966,0.843
		c-0.835,0-1.606-0.14-2.315-0.421c-0.708-0.282-1.328-0.67-1.856-1.165c-0.53-0.495-0.941-1.074-1.234-1.74
		c-0.292-0.665-0.438-1.379-0.438-2.144c0-0.767,0.18-1.476,0.541-2.13c0.359-0.651,0.866-1.215,1.52-1.688s1.429-0.838,2.331-1.097
		c0.9-0.259,1.891-0.391,2.973-0.391c0.9,0,1.811,0.08,2.734,0.236c0.924,0.159,1.745,0.385,2.466,0.676v-1.585
		c0-1.557-0.438-2.787-1.316-3.7c-0.879-0.912-2.095-1.368-3.647-1.368c-0.902,0-1.824,0.181-2.771,0.541s-1.903,0.88-2.872,1.553
		l-0.81-1.52c2.273-1.531,4.481-2.296,6.619-2.296c2.208,0,3.94,0.619,5.202,1.859c1.262,1.236,1.892,2.948,1.892,5.131v10.909
		H180.575z M174.09,122.682c1.193,0,2.291-0.226,3.293-0.673c1.002-0.451,1.762-1.047,2.28-1.792
		c0.202-0.201,0.354-0.421,0.456-0.657c0.101-0.236,0.151-0.456,0.151-0.659v-2.869c-0.766-0.295-1.559-0.521-2.381-0.677
		c-0.822-0.157-1.661-0.236-2.517-0.236c-1.621,0-2.938,0.339-3.952,1.012c-1.012,0.676-1.52,1.566-1.52,2.669
		c0,0.541,0.107,1.047,0.321,1.52c0.213,0.474,0.507,0.885,0.879,1.234c0.37,0.349,0.815,0.624,1.334,0.828
		C172.953,122.582,173.505,122.682,174.09,122.682z"/>
	<path fill="#FFFFFF" d="M130.139,79.884V58.618c0.109-1.589-0.077-3.078,0-4.785c0.032-0.742,0.052-1.586,0-2.309v-0.047v0.006
		c-0.538-7.567-3.478-14.004-8.859-19.298c-5.917-5.797-13.138-8.667-21.678-8.589c-1.817,0.016-10.288,2.097-14.224,3.084V7.587
		c-0.027-2.372,0-7.954,0-7.954s-5.948-0.017-8.317,0c-2.298,0.025-7.955,0-7.955,0s-0.022,5.808,0,8.097v46.528
		c0.063,8.46,3.565,15.595,9.486,21.401c5.894,5.797,13.091,8.661,21.56,8.581c4.744-0.041,10.854-0.61,12.983-5.071
		c-0.084,2.611,0,5.071,0,5.071s5.5-0.074,7.87,0c2.298,0.077,9.134,0,9.134,0S130.062,82.177,130.139,79.884z M110.105,63.973
		c-2.784,2.798-6.151,4.208-10.102,4.246c-3.961,0.035-7.331-1.313-10.123-4.062c-2.804-2.74-4.219-6.091-4.255-10.049
		l-0.094-10.549c5.138-1.627,12.675-3.928,14.219-3.941c3.943-0.036,7.336,1.341,10.184,4.125c2.817,2.779,4.268,6.149,4.304,10.106
		C114.275,57.805,112.888,61.177,110.105,63.973z"/>
</g>
</svg>
