<?xml version="1.0" encoding="utf-8"?>
<!-- Generator: Adobe Illustrator 16.0.0, SVG Export Plug-In . SVG Version: 6.00 Build 0)  -->
<!DOCTYPE svg PUBLIC "-//W3C//DTD SVG 1.1//EN" "http://www.w3.org/Graphics/SVG/1.1/DTD/svg11.dtd">
<svg version="1.1" id="Capa_1" xmlns="http://www.w3.org/2000/svg" xmlns:xlink="http://www.w3.org/1999/xlink" x="0px" y="0px"
	 width="223.042px" height="27.311px" viewBox="9.342 -1.947 223.042 27.311" enable-background="new 9.342 -1.947 223.042 27.311"
	 xml:space="preserve">
<path fill="#FFFFFF" d="M29.049,18.611c0,0.982-0.196,1.887-0.59,2.712c-0.394,0.823-0.924,1.538-1.587,2.142
	c-0.666,0.601-1.44,1.069-2.326,1.4c-0.885,0.333-1.832,0.498-2.841,0.498H9.342V-0.839h12.621c0.91,0,1.736,0.198,2.473,0.591
	c0.737,0.394,1.365,0.904,1.882,1.529c0.517,0.628,0.916,1.343,1.2,2.142c0.283,0.799,0.425,1.607,0.425,2.418
	c0,1.328-0.333,2.541-0.997,3.634c-0.664,1.096-1.587,1.913-2.768,2.457c1.5,0.441,2.687,1.268,3.561,2.472
	C28.612,15.608,29.049,17.011,29.049,18.611z M11.925,1.411v9.671h9.004c0.64,0,1.237-0.135,1.79-0.405s1.027-0.628,1.42-1.072
	c0.394-0.441,0.702-0.952,0.922-1.532c0.222-0.577,0.333-1.187,0.333-1.826c0-0.664-0.105-1.292-0.314-1.88
	c-0.209-0.592-0.505-1.103-0.886-1.532c-0.381-0.432-0.831-0.775-1.347-1.036c-0.517-0.258-1.083-0.387-1.697-0.387H11.925z
	 M26.464,18.167c0-0.64-0.109-1.259-0.33-1.862c-0.222-0.604-0.536-1.132-0.943-1.589c-0.405-0.453-0.884-0.823-1.438-1.105
	c-0.553-0.282-1.15-0.426-1.79-0.426H11.925v9.929h9.779c0.664,0,1.286-0.135,1.865-0.405c0.577-0.271,1.081-0.634,1.512-1.09
	c0.431-0.454,0.769-0.982,1.015-1.586C26.341,19.429,26.464,18.807,26.464,18.167z"/>
<path fill="#FFFFFF" d="M42.566,25.363v-3.505V-1.578h2.509v22.586v4.355H42.566z"/>
<path fill="#FFFFFF" d="M71.819,24.994v-2.139v-2.217c-0.836,1.502-1.975,2.664-3.414,3.49c-1.44,0.823-2.972,1.234-4.595,1.234
	c-2.092,0-3.648-0.693-4.669-2.084c-1.021-1.391-1.532-3.464-1.532-6.221V5.766h2.509v10.852c0,4.355,1.49,6.532,4.466,6.532
	c0.739,0,1.464-0.123,2.177-0.369s1.371-0.604,1.975-1.069c0.602-0.469,1.144-1.021,1.623-1.661c0.48-0.64,0.868-1.366,1.163-2.177
	V5.766h2.511v19.229H71.819z"/>
<path fill="#FFFFFF" d="M95.106,25.363c-1.403,0-2.688-0.265-3.857-0.793c-1.169-0.528-2.185-1.255-3.045-2.178
	c-0.862-0.922-1.532-1.985-2.011-3.192c-0.48-1.204-0.721-2.496-0.721-3.874c0-1.355,0.24-2.625,0.721-3.821
	c0.479-1.192,1.145-2.238,1.993-3.136c0.849-0.898,1.864-1.613,3.044-2.142c1.182-0.528,2.46-0.793,3.839-0.793
	c1.402,0,2.688,0.265,3.856,0.793c1.168,0.529,2.171,1.25,3.008,2.16s1.488,1.955,1.957,3.136c0.467,1.18,0.701,2.436,0.701,3.767
	c0,0.195,0,0.394,0,0.588c0,0.198-0.014,0.334-0.038,0.406h-16.46c0.075,1.033,0.313,1.988,0.721,2.862
	c0.405,0.874,0.928,1.631,1.568,2.268c0.64,0.643,1.371,1.138,2.195,1.495c0.825,0.357,1.705,0.535,2.64,0.535
	c0.614,0,1.23-0.084,1.844-0.259c0.616-0.171,1.182-0.405,1.698-0.699c0.517-0.298,0.984-0.658,1.403-1.091
	c0.417-0.43,0.737-0.904,0.959-1.42l2.178,0.591c-0.296,0.715-0.715,1.361-1.255,1.938c-0.541,0.58-1.168,1.084-1.882,1.514
	c-0.715,0.43-1.502,0.763-2.362,0.997C96.938,25.246,96.04,25.363,95.106,25.363z M102.191,14.364
	c-0.074-1.033-0.314-1.973-0.719-2.823c-0.406-0.847-0.922-1.58-1.55-2.196c-0.628-0.613-1.353-1.093-2.178-1.438
	c-0.824-0.346-1.704-0.517-2.638-0.517c-0.936,0-1.822,0.171-2.658,0.517c-0.836,0.345-1.568,0.826-2.196,1.438
	c-0.627,0.616-1.132,1.354-1.514,2.217c-0.381,0.859-0.608,1.796-0.682,2.802H102.191z"/>
<path fill="#FFFFFF" d="M146.497-0.839h2.178l10.888,26.202h-2.73l-3.396-8.193h-11.773l-3.358,8.193h-2.768L146.497-0.839z
	 M152.844,15.143l-5.278-12.954l-5.351,12.954H152.844z"/>
<path fill="#FFFFFF" d="M171.551,25.363v-3.728V-1.8h2.51v22.589v4.574H171.551z"/>
<path fill="#FFFFFF" d="M195.759,25.363c-1.525,0-2.922-0.382-4.188-1.145c-1.268-0.76-2.259-1.745-2.972-2.952v3.728h-2.251V-1.947
	h2.51V9.79c0.861-1.303,1.895-2.357,3.101-3.156c1.204-0.799,2.607-1.199,4.206-1.199c1.354,0,2.565,0.283,3.636,0.847
	c1.071,0.568,1.981,1.325,2.732,2.271c0.749,0.949,1.329,2.019,1.734,3.211c0.405,1.195,0.608,2.418,0.608,3.673
	c0,1.352-0.234,2.632-0.702,3.839c-0.467,1.204-1.106,2.256-1.919,3.153c-0.811,0.898-1.776,1.613-2.896,2.142
	C198.238,25.099,197.038,25.363,195.759,25.363z M195.169,23.149c1.057,0,2.022-0.216,2.896-0.646
	c0.873-0.43,1.624-1.009,2.251-1.736c0.628-0.724,1.121-1.55,1.477-2.472c0.357-0.922,0.536-1.874,0.536-2.859
	c0-1.009-0.167-1.982-0.499-2.916c-0.331-0.934-0.8-1.766-1.402-2.49c-0.604-0.727-1.329-1.307-2.178-1.736
	c-0.848-0.429-1.777-0.646-2.787-0.646c-0.763,0-1.476,0.129-2.14,0.387s-1.279,0.61-1.846,1.051
	c-0.566,0.445-1.069,0.955-1.513,1.532c-0.442,0.58-0.812,1.189-1.107,1.826v5.979c0.099,0.664,0.363,1.286,0.794,1.865
	c0.43,0.577,0.946,1.075,1.55,1.493c0.603,0.421,1.256,0.751,1.955,0.997C193.857,23.026,194.529,23.149,195.169,23.149z"/>
<path fill="#FFFFFF" d="M230.206,24.994v-3.211c-0.885,1.156-1.999,2.042-3.34,2.658c-1.341,0.615-2.786,0.922-4.336,0.922
	c-0.911,0-1.754-0.153-2.528-0.46c-0.775-0.309-1.452-0.732-2.029-1.273c-0.579-0.54-1.028-1.174-1.349-1.9
	c-0.319-0.728-0.479-1.508-0.479-2.343c0-0.838,0.196-1.613,0.59-2.328c0.394-0.712,0.947-1.327,1.661-1.844
	c0.713-0.517,1.562-0.916,2.547-1.198c0.983-0.283,2.066-0.427,3.248-0.427c0.983,0,1.979,0.087,2.988,0.258
	c1.01,0.175,1.907,0.421,2.694,0.739v-1.733c0-1.7-0.479-3.045-1.438-4.042s-2.289-1.496-3.985-1.496
	c-0.985,0-1.993,0.198-3.028,0.592c-1.033,0.394-2.078,0.961-3.137,1.697L217.4,7.943c2.484-1.673,4.896-2.508,7.232-2.508
	c2.412,0,4.306,0.676,5.685,2.031c1.378,1.352,2.066,3.223,2.066,5.607v11.921H230.206z M223.121,23.444
	c1.303,0,2.503-0.246,3.598-0.736c1.095-0.492,1.926-1.145,2.491-1.958c0.221-0.22,0.388-0.46,0.499-0.718
	c0.109-0.259,0.165-0.499,0.165-0.721v-3.136c-0.836-0.321-1.703-0.567-2.601-0.739c-0.9-0.171-1.816-0.258-2.75-0.258
	c-1.772,0-3.211,0.369-4.319,1.105c-1.106,0.738-1.661,1.712-1.661,2.916c0,0.592,0.117,1.145,0.352,1.661
	c0.233,0.517,0.555,0.967,0.96,1.349c0.405,0.381,0.892,0.682,1.458,0.903C221.877,23.333,222.481,23.444,223.121,23.444z"/>
</svg>
