<?xml version="1.0" encoding="utf-8"?>
<!-- Generator: Adobe Illustrator 16.0.0, SVG Export Plug-In . SVG Version: 6.00 Build 0)  -->
<!DOCTYPE svg PUBLIC "-//W3C//DTD SVG 1.1//EN" "http://www.w3.org/Graphics/SVG/1.1/DTD/svg11.dtd">
<svg version="1.1" id="Capa_1" xmlns="http://www.w3.org/2000/svg" xmlns:xlink="http://www.w3.org/1999/xlink" x="0px" y="0px"
	 width="59.969px" height="83.112px" viewBox="171.681 -46.922 59.969 83.112"
	 enable-background="new 171.681 -46.922 59.969 83.112" xml:space="preserve">
<path fill="#FFFFFF" d="M231.615,31.878v-20.88c0.107-1.56-0.075-3.021,0-4.697c0.032-0.729,0.051-1.559,0-2.268V3.986v0.007
	c-0.529-7.431-3.414-13.751-8.698-18.947c-5.81-5.693-12.898-8.509-21.284-8.434c-1.783,0.016-10.101,2.058-13.965,3.028v-18.745
	c-0.026-2.33,0-7.81,0-7.81s-5.84-0.016-8.167,0c-2.256,0.024-7.81,0-7.81,0s-0.022,5.702,0,7.95V6.719
	c0.062,8.307,3.5,15.312,9.312,21.012c5.787,5.691,12.854,8.504,21.168,8.425c4.658-0.04,10.655-0.599,12.748-4.979
	c-0.083,2.562,0,4.979,0,4.979s5.4-0.072,7.728,0c2.256,0.076,8.968,0,8.968,0S231.54,34.129,231.615,31.878z M211.944,16.256
	c-2.733,2.747-6.039,4.132-9.917,4.169c-3.889,0.035-7.198-1.289-9.939-3.988c-2.753-2.692-4.143-5.98-4.178-9.866l-0.092-10.357
	c5.044-1.598,12.445-3.856,13.96-3.87c3.873-0.035,7.203,1.315,9.999,4.051c2.766,2.729,4.191,6.037,4.226,9.922
	C216.038,10.2,214.678,13.51,211.944,16.256z"/>
</svg>
