<?xml version="1.0" encoding="utf-8"?>
<!-- Generator: Adobe Illustrator 16.0.0, SVG Export Plug-In . SVG Version: 6.00 Build 0)  -->
<!DOCTYPE svg PUBLIC "-//W3C//DTD SVG 1.1//EN" "http://www.w3.org/Graphics/SVG/1.1/DTD/svg11.dtd">
<svg version="1.1" id="Capa_1" xmlns="http://www.w3.org/2000/svg" xmlns:xlink="http://www.w3.org/1999/xlink" x="0px" y="0px"
	 width="203.042px" height="124.157px" viewBox="19.342 -0.836 203.042 124.157"
	 enable-background="new 19.342 -0.836 203.042 124.157" xml:space="preserve">
<g>
	<path fill="#FFFFFF" d="M37.281,117.174c0,0.894-0.179,1.717-0.537,2.469c-0.358,0.749-0.841,1.399-1.445,1.949
		c-0.606,0.547-1.311,0.974-2.118,1.274c-0.805,0.304-1.668,0.454-2.586,0.454H19.342V99.467H30.83c0.829,0,1.581,0.181,2.251,0.539
		c0.671,0.358,1.243,0.823,1.713,1.392c0.47,0.571,0.833,1.222,1.092,1.949c0.257,0.728,0.387,1.463,0.387,2.201
		c0,1.208-0.304,2.313-0.908,3.309c-0.604,0.998-1.445,1.741-2.52,2.236c1.366,0.402,2.446,1.153,3.241,2.25
		C36.884,114.44,37.281,115.716,37.281,117.174z M21.693,101.515v8.805h8.197c0.583,0,1.126-0.123,1.629-0.369
		c0.503-0.246,0.935-0.572,1.293-0.977c0.358-0.401,0.638-0.866,0.839-1.395c0.202-0.524,0.304-1.08,0.304-1.662
		c0-0.604-0.096-1.176-0.286-1.712c-0.19-0.538-0.459-1.003-0.806-1.395c-0.348-0.394-0.756-0.705-1.227-0.943
		c-0.47-0.234-0.986-0.353-1.545-0.353H21.693z M34.929,116.769c0-0.582-0.1-1.146-0.301-1.695c-0.202-0.549-0.488-1.03-0.858-1.446
		c-0.369-0.412-0.805-0.749-1.31-1.006c-0.503-0.257-1.047-0.389-1.63-0.389h-9.138v9.04h8.903c0.604,0,1.17-0.123,1.698-0.369
		c0.525-0.246,0.984-0.577,1.376-0.993c0.393-0.413,0.7-0.894,0.924-1.443C34.817,117.917,34.929,117.352,34.929,116.769z"/>
	<path fill="#FFFFFF" d="M49.587,123.321v-3.191V98.795h2.285v20.561v3.965H49.587z"/>
	<path fill="#FFFFFF" d="M76.216,122.984v-1.946v-2.019c-0.761,1.367-1.798,2.426-3.107,3.178c-1.311,0.749-2.705,1.124-4.183,1.124
		c-1.904,0-3.321-0.632-4.25-1.897c-0.929-1.267-1.394-3.153-1.394-5.663v-10.28h2.284v9.879c0,3.964,1.356,5.946,4.066,5.946
		c0.672,0,1.333-0.112,1.982-0.336c0.649-0.225,1.249-0.55,1.798-0.974c0.548-0.427,1.042-0.93,1.478-1.512
		c0.438-0.583,0.79-1.244,1.058-1.982V105.48h2.286v17.504H76.216z"/>
	<path fill="#FFFFFF" d="M97.415,123.321c-1.277,0-2.447-0.241-3.51-0.723c-1.065-0.48-1.989-1.143-2.772-1.981
		c-0.785-0.84-1.395-1.808-1.831-2.907c-0.438-1.096-0.656-2.271-0.656-3.526c0-1.233,0.219-2.39,0.656-3.479
		c0.436-1.085,1.042-2.036,1.814-2.854c0.772-0.817,1.697-1.468,2.771-1.949c1.076-0.481,2.239-0.722,3.494-0.722
		c1.277,0,2.447,0.24,3.511,0.722s1.977,1.138,2.738,1.966c0.762,0.829,1.355,1.78,1.781,2.854c0.425,1.074,0.639,2.218,0.639,3.429
		c0,0.178,0,0.358,0,0.536c0,0.181-0.012,0.304-0.034,0.369H91.031c0.068,0.94,0.286,1.81,0.656,2.605
		c0.369,0.796,0.845,1.484,1.427,2.064c0.583,0.585,1.248,1.036,1.999,1.361c0.75,0.325,1.551,0.486,2.403,0.486
		c0.559,0,1.12-0.076,1.679-0.234c0.561-0.156,1.076-0.369,1.546-0.638c0.47-0.271,0.896-0.599,1.277-0.992
		c0.38-0.391,0.671-0.823,0.874-1.293l1.982,0.538c-0.27,0.651-0.651,1.239-1.143,1.764c-0.492,0.528-1.063,0.987-1.713,1.378
		c-0.65,0.392-1.367,0.694-2.15,0.908C99.083,123.213,98.266,123.321,97.415,123.321z M103.865,113.308
		c-0.067-0.94-0.286-1.797-0.655-2.57c-0.369-0.771-0.839-1.438-1.411-1.999c-0.571-0.558-1.231-0.995-1.982-1.31
		s-1.552-0.47-2.402-0.47c-0.852,0-1.658,0.155-2.419,0.47c-0.762,0.314-1.427,0.752-1.999,1.31
		c-0.571,0.561-1.031,1.233-1.378,2.019c-0.347,0.781-0.554,1.635-0.621,2.551H103.865z"/>
	<path fill="#FFFFFF" d="M144.198,99.467h1.982l9.911,23.854h-2.485l-3.092-7.459h-10.718l-3.057,7.459h-2.52L144.198,99.467z
		 M149.977,114.016l-4.806-11.793l-4.871,11.793H149.977z"/>
	<path fill="#FFFFFF" d="M167.006,123.321v-3.394V98.592h2.284v20.563v4.165H167.006z"/>
	<path fill="#FFFFFF" d="M189.043,123.321c-1.389,0-2.66-0.348-3.812-1.042c-1.154-0.692-2.057-1.589-2.706-2.688v3.393h-2.049
		V98.458h2.284v10.686c0.785-1.187,1.726-2.146,2.823-2.874c1.097-0.728,2.373-1.091,3.829-1.091c1.231,0,2.335,0.257,3.31,0.771
		c0.975,0.517,1.804,1.205,2.486,2.066c0.683,0.864,1.21,1.838,1.579,2.923c0.369,1.088,0.554,2.201,0.554,3.344
		c0,1.23-0.213,2.396-0.638,3.494c-0.426,1.097-1.008,2.054-1.747,2.871c-0.738,0.817-1.618,1.469-2.638,1.949
		C191.3,123.08,190.208,123.321,189.043,123.321z M188.506,121.305c0.962,0,1.841-0.196,2.637-0.588
		c0.795-0.391,1.478-0.919,2.05-1.58c0.571-0.659,1.02-1.411,1.344-2.25c0.325-0.84,0.488-1.706,0.488-2.604
		c0-0.918-0.152-1.805-0.454-2.654c-0.303-0.851-0.729-1.608-1.277-2.267c-0.55-0.662-1.21-1.189-1.982-1.581
		c-0.772-0.391-1.618-0.588-2.537-0.588c-0.694,0-1.344,0.118-1.948,0.354c-0.604,0.234-1.164,0.555-1.68,0.957
		c-0.516,0.404-0.974,0.869-1.377,1.394c-0.403,0.528-0.739,1.083-1.009,1.663v5.443c0.09,0.604,0.331,1.17,0.724,1.698
		c0.391,0.524,0.861,0.979,1.41,1.358c0.549,0.383,1.144,0.684,1.78,0.908C187.312,121.193,187.923,121.305,188.506,121.305z"/>
	<path fill="#FFFFFF" d="M220.401,122.984v-2.923c-0.806,1.053-1.82,1.859-3.041,2.42s-2.535,0.84-3.946,0.84
		c-0.83,0-1.597-0.14-2.303-0.419c-0.705-0.281-1.321-0.667-1.847-1.159c-0.527-0.492-0.937-1.069-1.228-1.73
		c-0.291-0.662-0.437-1.373-0.437-2.133c0-0.763,0.18-1.468,0.538-2.119c0.357-0.647,0.862-1.208,1.512-1.679
		c0.649-0.47,1.422-0.834,2.318-1.091c0.896-0.257,1.881-0.389,2.957-0.389c0.896,0,1.802,0.08,2.721,0.235
		c0.919,0.159,1.736,0.383,2.452,0.673v-1.578c0-1.547-0.436-2.772-1.31-3.68c-0.873-0.908-2.083-1.361-3.628-1.361
		c-0.896,0-1.814,0.18-2.756,0.538c-0.94,0.358-1.893,0.875-2.856,1.545l-0.805-1.512c2.261-1.523,4.456-2.283,6.584-2.283
		c2.195,0,3.919,0.615,5.174,1.849c1.255,1.23,1.882,2.934,1.882,5.104v10.852H220.401z M213.951,121.573
		c1.187,0,2.279-0.224,3.275-0.669c0.997-0.449,1.753-1.042,2.269-1.783c0.2-0.199,0.353-0.418,0.453-0.653
		c0.1-0.235,0.15-0.454,0.15-0.656v-2.854c-0.761-0.293-1.55-0.517-2.367-0.673c-0.819-0.155-1.653-0.235-2.504-0.235
		c-1.612,0-2.922,0.337-3.932,1.007c-1.007,0.673-1.512,1.559-1.512,2.654c0,0.539,0.106,1.042,0.32,1.513
		c0.212,0.47,0.504,0.88,0.873,1.228c0.369,0.347,0.812,0.62,1.328,0.823C212.819,121.472,213.369,121.573,213.951,121.573z"/>
	<path fill="#FFFFFF" d="M152.926,79V57.846c0.109-1.581-0.076-3.062,0-4.76c0.033-0.738,0.052-1.578,0-2.297v-0.046v0.005
		c-0.535-7.527-3.458-13.93-8.812-19.196c-5.887-5.767-13.069-8.621-21.564-8.544c-1.808,0.017-10.234,2.086-14.149,3.068V7.083
		c-0.027-2.359,0-7.913,0-7.913s-5.917-0.016-8.274,0c-2.286,0.025-7.913,0-7.913,0s-0.022,5.777,0,8.055V53.51
		c0.063,8.416,3.546,15.513,9.436,21.288c5.864,5.767,13.023,8.615,21.447,8.536c4.719-0.041,10.796-0.607,12.916-5.045
		c-0.085,2.598,0,5.045,0,5.045s5.471-0.074,7.828,0c2.285,0.076,9.085,0,9.085,0S152.849,81.28,152.926,79z M132.997,63.171
		c-2.771,2.783-6.119,4.187-10.049,4.225c-3.939,0.035-7.292-1.307-10.069-4.041c-2.789-2.726-4.197-6.059-4.232-9.996
		l-0.093-10.494c5.11-1.619,12.609-3.907,14.144-3.921c3.924-0.036,7.297,1.334,10.13,4.104c2.803,2.764,4.246,6.116,4.282,10.054
		C137.144,57.037,135.766,60.392,132.997,63.171z"/>
</g>
</svg>
