<?xml version="1.0" standalone="no"?>
<!DOCTYPE svg PUBLIC "-//W3C//DTD SVG 20010904//EN"
 "http://www.w3.org/TR/2001/REC-SVG-20010904/DTD/svg10.dtd">
<svg version="1.0" xmlns="http://www.w3.org/2000/svg"
 width="382.000000pt" height="382.000000pt" viewBox="0 0 382.000000 382.000000"
 preserveAspectRatio="xMidYMid meet">
<metadata>
Created by potrace 1.11, written by Peter Selinger 2001-2013
</metadata>
<g transform="translate(0.000000,382.000000) scale(0.100000,-0.100000)"
fill="#000000" stroke="none">
<path d="M0 1910 l0 -1910 1910 0 1910 0 0 1910 0 1910 -1910 0 -1910 0 0
-1910z m1360 1200 c0 -329 4 -540 9 -540 6 0 67 14 138 31 225 53 406 89 458
89 28 0 91 -5 140 -11 263 -32 481 -134 671 -312 159 -150 260 -304 323 -493
58 -174 61 -213 61 -946 l0 -668 -340 0 -340 0 0 96 0 96 -44 -49 c-51 -57
-115 -94 -206 -120 -53 -14 -103 -18 -275 -18 -221 0 -265 6 -405 53 -167 55
-307 141 -439 266 -196 188 -314 386 -374 626 -21 84 -21 104 -24 1263 l-4
1177 326 0 325 0 0 -540z"/>
<path d="M1871 2033 c-64 -13 -210 -55 -405 -115 l-98 -30 5 -262 c3 -211 7
-272 22 -316 62 -198 222 -349 418 -395 341 -81 680 165 704 510 13 178 -41
321 -166 446 -138 138 -313 198 -480 162z"/>
</g>
</svg>
